<?xml version="1.0" standalone="no"?>
<!DOCTYPE svg PUBLIC "-//W3C//DTD SVG 20010904//EN"
 "http://www.w3.org/TR/2001/REC-SVG-20010904/DTD/svg10.dtd">
<svg version="1.0" xmlns="http://www.w3.org/2000/svg"
 width="512.000000pt" height="512.000000pt" viewBox="0 0 512.000000 512.000000"
 preserveAspectRatio="xMidYMid meet">
<metadata>
Created by potrace 1.11, written by Peter Selinger 2001-2013
</metadata>
<g transform="translate(0.000000,512.000000) scale(0.100000,-0.100000)"
fill="#000000" stroke="none">
<path d="M2450 4536 l0 -335 -57 -7 c-32 -4 -74 -8 -95 -8 -20 -1 -34 -4 -32
-7 2 -4 -20 -10 -48 -13 -122 -17 -403 -130 -541 -220 -173 -111 -407 -347
-511 -514 -122 -195 -211 -456 -241 -704 l-6 -58 -335 0 -334 0 0 -110 0 -110
334 0 335 0 6 -57 c25 -206 84 -404 171 -572 68 -132 85 -159 156 -253 171
-226 406 -409 673 -523 119 -51 367 -115 448 -115 18 0 42 -3 55 -6 l22 -6 0
-334 0 -334 110 0 110 0 0 334 0 334 88 12 c377 52 703 211 962 470 259 259
418 585 470 963 l12 87 334 0 334 0 0 110 0 110 -334 0 -334 0 -6 23 c-3 12
-6 36 -6 54 0 81 -64 329 -115 448 -114 267 -297 502 -523 673 -236 178 -517
289 -824 327 l-58 6 0 335 0 334 -110 0 -110 0 0 -334z m300 -560 c312 -46
561 -167 795 -386 228 -214 369 -482 426 -810 19 -105 16 -354 -4 -465 -53
-291 -188 -547 -401 -761 -246 -245 -537 -383 -879 -415 -577 -55 -1128 250
-1400 776 -196 380 -207 811 -31 1228 122 290 431 599 720 721 263 110 523
148 774 112z"/>
<path d="M2363 3306 c-217 -58 -393 -200 -493 -398 -21 -42 -44 -102 -51 -133
-7 -30 -15 -55 -20 -55 -4 0 -6 -71 -4 -157 2 -138 5 -168 27 -233 82 -246
257 -422 503 -506 74 -25 92 -28 235 -28 141 0 162 3 235 27 228 75 427 274
502 502 25 73 27 94 27 235 -1 146 -2 160 -30 240 -84 241 -266 420 -504 497
-59 19 -103 26 -205 29 -115 4 -141 1 -222 -20z m310 -201 c217 -46 389 -221
434 -442 78 -373 -277 -728 -650 -650 -167 34 -317 146 -390 290 -115 229 -77
467 103 647 142 142 314 195 503 155z"/>
</g>
</svg>
